<svg width="686" height="706" viewBox="0 0 686 706" fill="none" xmlns="http://www.w3.org/2000/svg">
<path fill-rule="evenodd" clip-rule="evenodd" d="M310.581 81.6859C385.41 63.5765 445.893 -12.8372 521.535 1.86725C596.68 16.475 659.906 83.3981 681.364 153.764C702.427 222.835 645.761 289.117 630.622 359.592C616.652 424.622 629.434 493.76 595.843 551.867C557.855 617.58 508.867 710.364 430.461 705.841C341.954 700.735 326.632 562.883 244.233 531.582C174.674 505.159 81.6992 598.908 25.2579 551.917C-27.8754 507.68 17.1741 420.079 30.9805 354.035C41.1609 305.335 72.6052 266.33 94.3845 221.241C116.049 176.39 115.84 117.332 158.672 89.6836C201.567 61.9945 260.403 93.8294 310.581 81.6859Z" fill="#F8D64D"/>
</svg>
