<svg width="659" height="701" viewBox="0 0 659 701" fill="none" xmlns="http://www.w3.org/2000/svg">
<path fill-rule="evenodd" clip-rule="evenodd" d="M335.38 32.59C384.15 38.8385 431.865 31.7303 478.94 48.32C540.825 70.1285 622.429 74.195 651.094 143.849C679.57 213.047 623.001 289.784 609.371 365.267C596.959 434.001 607.287 509.498 574.555 567.72C540.162 628.895 485.726 673.222 426.244 690.997C367.912 708.428 300.677 705.179 250.989 664.409C204.054 625.898 215.906 532.898 175.282 485.076C128.278 429.744 29.6652 448.517 5.15763 375.019C-17.7757 306.242 41.4792 237.154 70.9138 172.077C98.3198 111.485 118.352 36.4915 170.783 8.83757C222.458 -18.4171 279.297 25.4043 335.38 32.59Z" fill="#974444"/>
</svg>
