<svg width="683" height="682" viewBox="0 0 683 682" fill="none" xmlns="http://www.w3.org/2000/svg">
<path fill-rule="evenodd" clip-rule="evenodd" d="M317.749 29.7095C388.455 37.999 472.707 28.3718 519.688 78.2177C566.111 127.47 516.529 207.985 542.994 268.686C573.186 337.936 703.742 374.863 680.17 446.303C656.764 517.236 526.478 477.849 460.306 519.282C398.39 558.049 388.948 652.399 317.749 673.225C242.037 695.371 152.331 673.965 90.7673 627.372C30.3328 581.635 2.57668 505.22 0.0508662 432.786C-2.13361 370.14 66.7085 326.109 78.1079 264.335C92.9143 184.097 14.816 85.1146 75.0981 26.0942C132.214 -29.8265 235.477 20.0639 317.749 29.7095Z" fill="#974444"/>
</svg>
