<svg width="186" height="85" viewBox="0 0 186 85" fill="none" xmlns="http://www.w3.org/2000/svg">
<path d="M50.1051 30.1253C50.1922 29.6724 50.2618 29.1845 50.2618 28.662C50.2618 23.5926 45.735 19.4639 40.1809 19.4639C37.7607 19.4639 35.358 20.3523 33.5647 21.8331C31.7018 20.3175 29.3339 19.4639 26.879 19.4639C24.2498 19.4639 21.7602 20.3872 19.8971 22.0943C17.982 23.8363 16.9373 26.1707 16.9373 28.662C16.9373 29.324 17.007 29.9685 17.1289 30.5609C14.3605 32.2332 12.6369 35.1077 12.6369 38.2433C12.6369 39.9156 13.0374 41.4139 13.8731 42.7901C13.0722 44.1488 12.6369 45.7166 12.6369 47.302C12.6369 50.4552 14.2213 53.2599 16.9722 55.0018C16.9373 55.4721 16.9373 55.9251 16.9373 56.3606C16.9373 58.8517 17.9994 61.1861 19.8971 62.9282C21.76 64.618 24.2324 65.5587 26.879 65.5587C29.3339 65.5587 31.6844 64.7051 33.5647 63.1895C35.3754 64.6876 37.7607 65.5587 40.1809 65.5587C45.735 65.5587 50.2618 61.4301 50.2618 56.378C50.2618 56.0645 50.2444 55.7508 50.2096 55.4547C53.4306 53.8521 55.5024 50.7337 55.5024 47.3193C55.5024 45.7341 55.0671 44.1835 54.2663 42.8073C55.1019 41.4311 55.5024 39.933 55.5024 38.2605C55.5026 34.794 53.3611 31.6408 50.1051 30.1253ZM50.819 43.87C51.6199 44.863 52.0378 46.0476 52.0378 47.3018C52.0378 49.671 50.2968 51.8486 47.7199 52.7023C46.8843 52.981 46.3793 53.8346 46.5534 54.7057C46.6579 55.2981 46.7798 55.8729 46.7798 56.3606C46.7798 59.5138 43.82 62.0746 40.1811 62.0746C38.1614 62.0746 36.107 61.1338 34.9578 59.6706C34.6444 59.2699 34.157 59.0259 33.6346 59.0085C33.6172 59.0085 33.6172 59.0085 33.5998 59.0085C33.0948 59.0085 32.6073 59.2175 32.3113 59.6531C30.9706 61.2035 29.0032 62.1094 26.914 62.1094C23.3447 62.1094 20.4545 59.5486 20.4545 56.3954C20.4545 55.7684 20.4545 55.1238 20.5939 54.7754C20.9421 53.9217 20.559 52.9462 19.7233 52.5455C17.4947 51.4829 16.1541 49.5317 16.1541 47.3194C16.1541 46.0652 16.572 44.8806 17.3729 43.8876C17.8953 43.2429 17.8953 42.3372 17.3729 41.6925C16.5372 40.6647 16.1541 39.5672 16.1541 38.2607C16.1541 36.0482 17.6166 34.01 19.8975 33.0868C20.3328 32.9127 20.6809 32.5643 20.8551 32.1287C21.0292 31.693 21.0292 31.2053 20.8376 30.7699C20.559 30.1427 20.4371 29.4808 20.4371 28.662C20.4371 25.5088 23.3447 22.948 26.8965 22.948C28.9684 22.948 30.9358 23.8365 32.2939 25.4043C32.6422 25.8049 33.1296 26.0315 33.652 26.0139C34.1744 25.9965 34.6444 25.7526 34.9753 25.3518C36.1418 23.8886 38.1788 22.9478 40.1985 22.9478C43.8374 22.9478 46.7972 25.5086 46.7972 28.6618C46.7972 29.3064 46.5882 29.9161 46.3444 30.6304C46.2051 31.0832 46.24 31.5885 46.4663 32.0066C46.6927 32.4246 47.0756 32.7383 47.5458 32.8602C50.1923 33.5745 52.0378 35.7868 52.0378 38.2433C52.0378 39.5498 51.6547 40.6299 50.819 41.6751C50.2966 42.3196 50.2966 43.2255 50.819 43.87Z" fill="#000"/>
<path d="M37.0992 39.4975L33.3732 40.7518L35.6715 34.2714C35.9849 33.3655 35.5147 32.3551 34.6094 32.0416C33.7041 31.728 32.6942 32.1983 32.3808 33.1042L28.8812 42.9642C28.6548 43.6089 28.8115 44.3056 29.2817 44.7759C29.7519 45.2636 30.4482 45.4205 31.0749 45.2113L34.7835 43.9571L32.3634 50.6989C32.0325 51.6048 32.5027 52.5978 33.408 52.9287C33.5996 52.9984 33.8085 53.0332 33.9999 53.0332C34.7137 53.0332 35.3754 52.5804 35.6715 51.8661L39.293 41.7446C39.5193 41.1174 39.3626 40.4033 38.8924 39.9328C38.4225 39.4453 37.7261 39.2885 37.0992 39.4975Z" fill="#000"/>
<path d="M31.1448 10.0219C31.6672 10.4573 32.381 10.5444 32.9903 10.2483L33.2166 10.1438L32.3113 13.5583C32.0675 14.4816 32.6248 15.4398 33.5475 15.6836C33.7042 15.7185 33.8435 15.7359 34.0003 15.7359C34.7663 15.7359 35.4802 15.2133 35.6542 14.4294L37.5345 7.37402C37.7087 6.71196 37.4823 6.01524 36.9601 5.57961C36.4378 5.14399 35.7065 5.05708 35.0971 5.35318L34.8185 5.49252L35.6542 2.16516C35.898 1.24183 35.3408 0.301082 34.4006 0.0572298C33.4779 -0.186622 32.5377 0.370752 32.2939 1.3115L30.5529 8.24492C30.396 8.90698 30.6224 9.58645 31.1448 10.0219Z" fill="#000"/>
<path d="M0.814918 11.9905L3.93144 13.9589C3.35696 14.1853 2.93903 14.7255 2.85196 15.3525C2.7649 16.032 3.07834 16.6939 3.65282 17.0597L9.83362 20.927C10.1296 21.1012 10.4429 21.1882 10.7564 21.1882C11.3308 21.1882 11.9055 20.8921 12.2363 20.3694C12.7413 19.5506 12.4976 18.4705 11.6793 17.9654L8.7369 16.1187C9.31138 15.8923 9.71189 15.3696 9.79896 14.7425C9.88603 14.0631 9.57259 13.4012 8.99811 13.0354L2.678 9.04614C1.85974 8.5236 0.797678 8.76746 0.275269 9.58611C-0.24714 10.4051 -0.00334901 11.4678 0.814918 11.9905Z" fill="#000"/>
<path d="M9.8512 64.0952L3.5311 68.0845C2.93921 68.4503 2.64318 69.1123 2.73024 69.7916C2.81731 70.4189 3.23524 70.9414 3.82713 71.1678L0.849745 72.9798C0.031478 73.4675 -0.229727 74.5476 0.275269 75.3664C0.588714 75.9064 1.16319 76.2027 1.75525 76.2027C2.05129 76.2027 2.36456 76.133 2.678 75.9762L8.99811 72.1089C9.59 71.7606 9.90344 71.0811 9.81638 70.4018C9.72931 69.7397 9.27673 69.1824 8.64983 68.9733L11.7141 67.0396C12.5324 66.5171 12.7762 65.4544 12.2538 64.6356C11.7315 63.8166 10.6695 63.5727 9.8512 64.0952Z" fill="#000"/>
<path d="M36.9599 74.8437C36.4375 74.4083 35.7063 74.3212 35.097 74.6173L34.8184 74.7566L35.654 71.4293C35.8978 70.506 35.3406 69.5652 34.4004 69.3214C33.4777 69.0775 32.5375 69.6349 32.2937 70.5756L30.5527 77.509C30.396 78.1711 30.6224 78.8504 31.1446 79.286C31.667 79.7215 32.3808 79.8086 32.9901 79.5125L33.2165 79.408L32.3111 82.8224C32.0673 83.7457 32.6246 84.7039 33.5473 84.9478C33.7041 84.9826 33.8434 85 34.0001 85C34.7661 85 35.4801 84.4775 35.654 83.6935L37.5344 76.6381C37.7087 75.9761 37.4823 75.2794 36.9599 74.8437Z" fill="#000"/>
<path d="M57.3829 21.1884C57.6964 21.1884 58.0271 21.1013 58.3057 20.9097L64.4865 17.0424C65.061 16.694 65.3744 16.0146 65.2873 15.3353C65.2003 14.6732 64.7477 14.1333 64.1208 13.9242L67.1851 12.0079C68.0033 11.4854 68.2471 10.4227 67.7247 9.60387C67.2023 8.78505 66.1403 8.55861 65.322 9.06391L59.0019 13.0532C58.41 13.4189 58.114 14.081 58.201 14.7603C58.3055 15.4049 58.7407 15.9449 59.3502 16.1539L56.46 17.9656C55.6418 18.4707 55.398 19.5508 55.9028 20.3696C56.2338 20.8923 56.8083 21.1884 57.3829 21.1884Z" fill="#000"/>
<path d="M67.1678 72.9798L64.2777 71.1682C64.887 70.9592 65.3398 70.419 65.4268 69.7746C65.5139 69.0951 65.2005 68.4332 64.626 68.0674L58.3059 64.0782C57.4876 63.5556 56.4255 63.7995 55.9031 64.6181C55.3807 65.4368 55.6245 66.4996 56.443 67.0222L59.5072 68.9559C58.8805 69.1649 58.4278 69.705 58.3407 70.3669C58.2536 71.0464 58.5671 71.7083 59.1415 72.0741L65.3223 75.9414C65.6184 76.1156 65.9316 76.2027 66.2451 76.2027C66.837 76.2027 67.3942 75.924 67.7251 75.3839C68.2299 74.565 67.9861 73.4849 67.1678 72.9798Z" fill="#000"/>
<path d="M85.835 30.605H90.315V55H85.835V30.605Z" fill="#000"/>
<path d="M105.016 37.15C106.755 37.15 108.061 37.7042 108.936 38.8125C109.823 39.9092 110.266 41.4667 110.266 43.485V55H105.786V43.87C105.786 42.8783 105.576 42.0908 105.156 41.5075C104.736 40.9125 104.118 40.615 103.301 40.615C102.753 40.615 102.24 40.755 101.761 41.035C101.295 41.315 100.921 41.7058 100.641 42.2075C100.361 42.6975 100.221 43.2517 100.221 43.87V55H95.7414V37.57H99.8014L99.8889 39.8625C101.091 38.0542 102.8 37.15 105.016 37.15Z" fill="#000"/>
<path d="M136.047 30.185V55H131.707V44.535L131.865 40.405L130.622 42.295L125.827 47.93L121.032 42.295L119.79 40.405L119.982 44.535V55H115.642V30.185H115.992L125.862 41.8225L135.662 30.185H136.047Z" fill="#000"/>
<path d="M141.436 30.08H146.336V34.735H141.436V30.08ZM141.611 37.57H146.161V55H141.611V37.57Z" fill="#000"/>
<path d="M160.661 37.15C162.399 37.15 163.706 37.7042 164.581 38.8125C165.468 39.9092 165.911 41.4667 165.911 43.485V55H161.431V43.87C161.431 42.8783 161.221 42.0908 160.801 41.5075C160.381 40.9125 159.763 40.615 158.946 40.615C158.398 40.615 157.884 40.755 157.406 41.035C156.939 41.315 156.566 41.7058 156.286 42.2075C156.006 42.6975 155.866 43.2517 155.866 43.87V55H151.386V37.57H155.446L155.533 39.8625C156.735 38.0542 158.444 37.15 160.661 37.15Z" fill="#000"/>
<path d="M176.782 55.49C175.382 55.49 174.157 55.1108 173.107 54.3525C172.068 53.5942 171.263 52.5267 170.692 51.15C170.132 49.7617 169.852 48.1517 169.852 46.32C169.852 43.4033 170.441 41.1458 171.619 39.5475C172.809 37.9492 174.553 37.15 176.852 37.15C178.053 37.15 179.063 37.4475 179.879 38.0425C180.696 38.6375 181.227 39.4833 181.472 40.58L181.157 38.025V28.4H185.287V55H181.472V51.43C181.145 52.6783 180.579 53.67 179.774 54.405C178.969 55.1283 177.972 55.49 176.782 55.49ZM177.797 52.025C178.38 52.025 178.917 51.8267 179.407 51.43C179.908 51.0333 180.305 50.415 180.597 49.575C180.9 48.7233 181.052 47.6617 181.052 46.39C181.052 44.5467 180.789 43.135 180.264 42.155C179.739 41.175 178.952 40.685 177.902 40.685C177.295 40.685 176.723 40.8658 176.187 41.2275C175.662 41.5892 175.224 42.19 174.874 43.03C174.536 43.87 174.367 44.9667 174.367 46.32C174.367 47.5683 174.513 48.6183 174.804 49.47C175.108 50.3217 175.516 50.9633 176.029 51.395C176.554 51.815 177.143 52.025 177.797 52.025Z" fill="#000"/>
</svg>
